<svg id="Layer_1" data-name="Layer 1" xmlns="http://www.w3.org/2000/svg" viewBox="0 0 424.68 868"><defs><style>.cls-1{fill:#34d399;}.cls-2{fill:#60a5fa;}.cls-3{fill:#fcd34d;}</style></defs><title>TheFullStack-logo-only</title><polygon class="cls-1" points="212.34 647.86 6.84 541.21 212.34 434.56 417.84 541.21 212.34 647.86"/><path d="M212.34,654.7a6.76,6.76,0,0,1-3.15-.77L3.69,547.29a6.85,6.85,0,0,1,0-12.15l205.5-106.65a6.81,6.81,0,0,1,6.3,0L421,535.14a6.85,6.85,0,0,1,0,12.15L215.49,653.93A6.73,6.73,0,0,1,212.34,654.7ZM21.7,541.21l190.64,98.94L403,541.21,212.34,442.27Z"/><polygon class="cls-1" points="212.34 861.16 417.84 753.98 417.84 541.21 212.34 647.86 212.34 861.16"/><path d="M212.34,868a6.83,6.83,0,0,1-6.84-6.84V647.86a6.84,6.84,0,0,1,3.69-6.08l205.5-106.64a6.84,6.84,0,0,1,10,6.07V754a6.85,6.85,0,0,1-3.68,6.07L215.51,867.22A6.85,6.85,0,0,1,212.34,868Zm6.84-216V849.87L411,749.84V552.47Z"/><polygon class="cls-1" points="212.34 861.16 6.84 753.98 6.84 541.21 212.34 647.86 212.34 861.16"/><path d="M212.34,868a6.81,6.81,0,0,1-3.16-.78L3.68,760.05A6.85,6.85,0,0,1,0,754V541.21a6.84,6.84,0,0,1,10-6.07L215.49,641.78a6.84,6.84,0,0,1,3.69,6.08v213.3a6.83,6.83,0,0,1-6.84,6.84ZM13.69,749.84l191.81,100V652L13.69,552.47Z"/><polygon class="cls-2" points="212.34 433.43 6.84 326.78 212.34 220.13 417.84 326.78 212.34 433.43"/><path d="M212.34,440.27a6.76,6.76,0,0,1-3.15-.77L3.69,332.85a6.84,6.84,0,0,1,0-12.14l205.5-106.65a6.81,6.81,0,0,1,6.3,0L421,320.71a6.84,6.84,0,0,1,0,12.14L215.49,439.5A6.73,6.73,0,0,1,212.34,440.27ZM21.7,326.78l190.64,98.94L403,326.78,212.34,227.84Z"/><polygon class="cls-2" points="212.34 646.73 417.84 539.55 417.84 326.78 212.34 433.43 212.34 646.73"/><path d="M212.34,653.57a6.83,6.83,0,0,1-6.84-6.84V433.43a6.84,6.84,0,0,1,3.69-6.08l205.5-106.64a6.84,6.84,0,0,1,10,6.07V539.55a6.85,6.85,0,0,1-3.68,6.07L215.51,652.79A6.85,6.85,0,0,1,212.34,653.57Zm6.84-216V635.44L411,535.41V338Z"/><polygon class="cls-2" points="212.34 646.73 6.84 539.55 6.84 326.78 212.34 433.43 212.34 646.73"/><path d="M212.34,653.57a6.81,6.81,0,0,1-3.16-.78L3.68,545.62A6.85,6.85,0,0,1,0,539.55V326.78a6.84,6.84,0,0,1,10-6.07L215.49,427.35a6.84,6.84,0,0,1,3.69,6.08v213.3a6.83,6.83,0,0,1-6.84,6.84ZM13.69,535.41l191.81,100V437.59L13.69,338Z"/><polygon class="cls-3" points="212.34 220.14 6.84 113.49 212.34 6.84 417.84 113.49 212.34 220.14"/><path d="M212.34,227a6.76,6.76,0,0,1-3.15-.77L3.69,119.57a6.85,6.85,0,0,1,0-12.15L209.19.77a6.81,6.81,0,0,1,6.3,0L421,107.42a6.85,6.85,0,0,1,0,12.15L215.49,226.21A6.73,6.73,0,0,1,212.34,227ZM21.7,113.49l190.64,98.94L403,113.49,212.34,14.55Z"/><polygon class="cls-3" points="212.34 433.44 417.84 326.26 417.84 113.49 212.34 220.14 212.34 433.44"/><path d="M212.34,440.28a6.83,6.83,0,0,1-6.84-6.84V220.14a6.84,6.84,0,0,1,3.69-6.08l205.5-106.64a6.84,6.84,0,0,1,10,6.07V326.26a6.85,6.85,0,0,1-3.68,6.07L215.51,439.5A6.85,6.85,0,0,1,212.34,440.28Zm6.84-216V422.15L411,322.11V124.75Z"/><polygon class="cls-3" points="212.34 433.44 6.84 326.26 6.84 113.49 212.34 220.14 212.34 433.44"/><path d="M212.34,440.28a6.81,6.81,0,0,1-3.16-.78L3.68,332.33A6.85,6.85,0,0,1,0,326.26V113.49a6.84,6.84,0,0,1,10-6.07L215.49,214.06a6.84,6.84,0,0,1,3.69,6.08v213.3a6.83,6.83,0,0,1-6.84,6.84ZM13.69,322.11l191.81,100V224.3L13.69,124.75Z"/></svg>