<?xml version="1.0" encoding="utf-8"?>
<!-- Generator: Adobe Illustrator 22.1.0, SVG Export Plug-In . SVG Version: 6.00 Build 0)  -->
<svg version="1.1" id="Background" xmlns="http://www.w3.org/2000/svg" xmlns:xlink="http://www.w3.org/1999/xlink" x="0px" y="0px"
	 viewBox="0 0 1920 1080" style="enable-background:new 0 0 1920 1080;" xml:space="preserve">
<style type="text/css">
	.st0{clip-path:url(#SVGID_2_);}
	.st1{fill:url(#SVGID_3_);stroke:#FFFFFF;stroke-width:0.25;stroke-miterlimit:10;}
	.st2{fill:none;stroke:#FFFFFF;stroke-width:3;stroke-miterlimit:10;}
	.st3{fill:url(#SVGID_4_);}
	.st4{fill:url(#SVGID_5_);}
	.st5{fill:url(#SVGID_6_);}
	.st6{fill:url(#SVGID_7_);}
	.st7{fill:url(#SVGID_8_);}
	.st8{fill:url(#SVGID_9_);}
	.st9{fill:url(#SVGID_10_);}
	.st10{fill:url(#SVGID_11_);}
	.st11{fill:url(#SVGID_12_);}
	.st12{fill:url(#SVGID_13_);}
	.st13{fill:url(#SVGID_14_);}
	.st14{fill:url(#SVGID_15_);}
	.st15{fill:url(#SVGID_16_);}
	.st16{fill:url(#SVGID_17_);}
	.st17{fill:url(#SVGID_18_);}
	.st18{fill:url(#SVGID_19_);}
	.st19{fill:url(#SVGID_20_);}
	.st20{fill:url(#SVGID_21_);}
	.st21{fill:url(#SVGID_22_);}
	.st22{fill:url(#SVGID_23_);}
	.st23{fill:url(#SVGID_24_);}
	.st24{fill:url(#SVGID_25_);}
	.st25{fill:url(#SVGID_26_);}
	.st26{fill:url(#SVGID_27_);}
	.st27{fill:url(#SVGID_28_);}
	.st28{fill:url(#SVGID_29_);}
	.st29{fill:url(#SVGID_30_);}
	.st30{fill:url(#SVGID_31_);}
	.st31{fill:url(#SVGID_32_);}
	.st32{fill:url(#SVGID_33_);}
	.st33{fill:url(#SVGID_34_);}
	.st34{fill:url(#SVGID_35_);}
	.st35{fill:url(#SVGID_36_);}
	.st36{fill:#E6E6E6;}
	.st37{opacity:0.55;fill:#FFFFFF;}
	.st38{fill:#FFFFFF;}
	.st39{fill:url(#SVGID_37_);}
	.st40{fill:url(#SVGID_38_);}
	.st41{fill:url(#SVGID_39_);}
	.st42{fill:url(#SVGID_40_);}
	.st43{fill:#E5CF76;}
	.st44{fill:url(#SVGID_41_);}
	.st45{fill:url(#SVGID_42_);}
	.st46{fill:url(#SVGID_43_);}
	.st47{fill:url(#SVGID_44_);}
</style>
<g>
	<defs>
		<rect id="SVGID_1_" x="-0.5" y="-1.5" width="1922" height="1081"/>
	</defs>
	<clipPath id="SVGID_2_">
		<use xlink:href="#SVGID_1_"  style="overflow:visible;"/>
	</clipPath>
	<g class="st0">
		
			<linearGradient id="SVGID_3_" gradientUnits="userSpaceOnUse" x1="1331.2999" y1="1486.0887" x2="3661.1384" y2="-843.7498" gradientTransform="matrix(0.866 0.5 -1 0.5774 -880.7894 -894.2222)">
			<stop  offset="0.3099" style="stop-color:#BB55FF"/>
			<stop  offset="1" style="stop-color:#410094"/>
		</linearGradient>
		<polygon class="st1" points="1129.8,1780.8 -1190.5,441.2 789.9,-702.2 3110.2,637.4 		"/>
		<g>
			<polygon class="st2" points="789.9,-700.6 3109.7,638.7 1129.1,1782.2 -1190.7,442.9 			"/>
			<line class="st2" x1="-1091.7" y1="385.7" x2="1228.1" y2="1725"/>
			<line class="st2" x1="-992.7" y1="328.5" x2="1327.1" y2="1667.8"/>
			<line class="st2" x1="-893.6" y1="271.3" x2="1426.2" y2="1610.7"/>
			<line class="st2" x1="-794.6" y1="214.2" x2="1525.2" y2="1553.5"/>
			<line class="st2" x1="-695.6" y1="157" x2="1624.2" y2="1496.3"/>
			<line class="st2" x1="-596.5" y1="99.8" x2="1723.3" y2="1439.2"/>
			<line class="st2" x1="-497.5" y1="42.6" x2="1822.3" y2="1382"/>
			<line class="st2" x1="-398.5" y1="-14.5" x2="1921.3" y2="1324.8"/>
			<line class="st2" x1="-299.4" y1="-71.7" x2="2020.3" y2="1267.6"/>
			<line class="st2" x1="-200.4" y1="-128.9" x2="2119.4" y2="1210.5"/>
			<line class="st2" x1="-101.4" y1="-186.1" x2="2218.4" y2="1153.3"/>
			<line class="st2" x1="-2.4" y1="-243.2" x2="2317.4" y2="1096.1"/>
			<line class="st2" x1="96.7" y1="-300.4" x2="2416.5" y2="1038.9"/>
			<line class="st2" x1="195.7" y1="-357.6" x2="2515.5" y2="981.8"/>
			<line class="st2" x1="294.7" y1="-414.8" x2="2614.5" y2="924.6"/>
			<line class="st2" x1="393.8" y1="-471.9" x2="2713.6" y2="867.4"/>
			<line class="st2" x1="492.8" y1="-529.1" x2="2812.6" y2="810.2"/>
			<line class="st2" x1="591.8" y1="-586.3" x2="2911.6" y2="753.1"/>
			<line class="st2" x1="690.9" y1="-643.5" x2="3010.6" y2="695.9"/>
			<line class="st2" x1="2999.2" y1="574.9" x2="1018.6" y2="1718.4"/>
			<line class="st2" x1="2888.7" y1="511.1" x2="908.1" y2="1654.6"/>
			<line class="st2" x1="2778.3" y1="447.4" x2="797.7" y2="1590.9"/>
			<line class="st2" x1="2667.8" y1="383.6" x2="687.2" y2="1527.1"/>
			<line class="st2" x1="2557.3" y1="319.8" x2="576.7" y2="1463.3"/>
			<line class="st2" x1="2446.9" y1="256" x2="466.3" y2="1399.5"/>
			<line class="st2" x1="2336.4" y1="192.3" x2="355.8" y2="1335.8"/>
			<line class="st2" x1="2225.9" y1="128.5" x2="245.3" y2="1272"/>
			<line class="st2" x1="2115.5" y1="64.7" x2="134.9" y2="1208.2"/>
			<line class="st2" x1="2005" y1="0.9" x2="24.4" y2="1144.4"/>
			<line class="st2" x1="1894.5" y1="-62.9" x2="-86.1" y2="1080.6"/>
			<line class="st2" x1="1784.1" y1="-126.6" x2="-196.5" y2="1016.9"/>
			<line class="st2" x1="1673.6" y1="-190.4" x2="-307" y2="953.1"/>
			<line class="st2" x1="1563.1" y1="-254.2" x2="-417.4" y2="889.3"/>
			<line class="st2" x1="1452.7" y1="-318" x2="-527.9" y2="825.5"/>
			<line class="st2" x1="1342.2" y1="-381.7" x2="-638.4" y2="761.8"/>
			<line class="st2" x1="1231.8" y1="-445.5" x2="-748.8" y2="698"/>
			<line class="st2" x1="1121.3" y1="-509.3" x2="-859.3" y2="634.2"/>
			<line class="st2" x1="1010.8" y1="-573.1" x2="-969.8" y2="570.4"/>
			<line class="st2" x1="900.4" y1="-636.9" x2="-1080.2" y2="506.6"/>
		</g>
		<g>
			<g>
				<linearGradient id="SVGID_4_" gradientUnits="userSpaceOnUse" x1="1386.135" y1="848.3482" x2="1610.9541" y2="623.5291">
					<stop  offset="0" style="stop-color:#A0A0A0"/>
					<stop  offset="1" style="stop-color:#505050"/>
				</linearGradient>
				<polygon class="st3" points="1761,773.6 1564.2,886.5 1236.1,698.3 1432.9,585.4 				"/>
				<linearGradient id="SVGID_5_" gradientUnits="userSpaceOnUse" x1="1556.9143" y1="881.7559" x2="1768.2441" y2="670.426">
					<stop  offset="0" style="stop-color:#A0A0A0"/>
					<stop  offset="1" style="stop-color:#505050"/>
				</linearGradient>
				<polygon class="st4" points="1564.2,889 1564.2,776.1 1761,663.2 1761,776.1 				"/>
				<linearGradient id="SVGID_6_" gradientUnits="userSpaceOnUse" x1="1229.4739" y1="692.9451" x2="1439.5458" y2="482.8731">
					<stop  offset="0" style="stop-color:#A0A0A0"/>
					<stop  offset="1" style="stop-color:#505050"/>
				</linearGradient>
				<polygon class="st5" points="1236.1,699.6 1236.1,589.2 1432.9,476.3 1432.9,586.7 				"/>
				<linearGradient id="SVGID_7_" gradientUnits="userSpaceOnUse" x1="1386.135" y1="737.955" x2="1610.9541" y2="513.1359">
					<stop  offset="0" style="stop-color:#A0A0A0"/>
					<stop  offset="1" style="stop-color:#505050"/>
				</linearGradient>
				<polygon class="st6" points="1761,663.2 1564.2,776.1 1236.1,587.9 1432.9,475 				"/>
				<linearGradient id="SVGID_8_" gradientUnits="userSpaceOnUse" x1="1400.1238" y1="587.9091" x2="1400.1238" y2="889">
					<stop  offset="0" style="stop-color:#A0A0A0"/>
					<stop  offset="1" style="stop-color:#505050"/>
				</linearGradient>
				<polygon class="st7" points="1236.1,587.9 1236.1,700.8 1564.2,889 1564.2,776.1 				"/>
				<g>
					<linearGradient id="SVGID_9_" gradientUnits="userSpaceOnUse" x1="1273.5314" y1="625.3286" x2="1273.5314" y2="712.9807">
						<stop  offset="0" style="stop-color:#4B4B4B"/>
						<stop  offset="1" style="stop-color:#0A0A0A"/>
					</linearGradient>
					<polygon class="st8" points="1262.7,625.3 1284,637.5 1284.3,713 1262.7,700.6 					"/>
					
						<linearGradient id="SVGID_10_" gradientUnits="userSpaceOnUse" x1="1242.2" y1="759.2656" x2="1249.1077" y2="752.3578" gradientTransform="matrix(0.9851 -0.1722 0.1722 0.9851 -83.6446 156.4386)">
						<stop  offset="0" style="stop-color:#C8C8C8"/>
						<stop  offset="1" style="stop-color:#F5F5F5"/>
					</linearGradient>
					<path class="st9" d="M1275,681.7L1275,681.7c3.3,1.5,4.2,6.3,1.6,8.8l0,0c-1.3,1.2-3,1.5-4.6,0.8v0c-3.3-1.5-4.2-6.3-1.6-8.8
						l0,0C1271.7,681.3,1273.4,681,1275,681.7z"/>
					<linearGradient id="SVGID_11_" gradientUnits="userSpaceOnUse" x1="1298.7021" y1="640.4122" x2="1298.7021" y2="728.0643">
						<stop  offset="0" style="stop-color:#4B4B4B"/>
						<stop  offset="1" style="stop-color:#0A0A0A"/>
					</linearGradient>
					<polygon class="st10" points="1287.9,640.4 1309.1,652.6 1309.5,728.1 1287.9,715.7 					"/>
					
						<linearGradient id="SVGID_12_" gradientUnits="userSpaceOnUse" x1="1264.3981" y1="778.4574" x2="1271.3057" y2="771.5497" gradientTransform="matrix(0.9851 -0.1722 0.1722 0.9851 -83.6446 156.4386)">
						<stop  offset="0" style="stop-color:#C8C8C8"/>
						<stop  offset="1" style="stop-color:#F5F5F5"/>
					</linearGradient>
					<path class="st11" d="M1300.2,696.8L1300.2,696.8c3.3,1.5,4.2,6.3,1.6,8.8l0,0c-1.3,1.2-3,1.5-4.6,0.8l0,0
						c-3.3-1.5-4.2-6.3-1.6-8.8l0,0C1296.8,696.4,1298.6,696.1,1300.2,696.8z"/>
					<linearGradient id="SVGID_13_" gradientUnits="userSpaceOnUse" x1="1323.1305" y1="654.3905" x2="1323.1305" y2="742.0426">
						<stop  offset="0" style="stop-color:#4B4B4B"/>
						<stop  offset="1" style="stop-color:#0A0A0A"/>
					</linearGradient>
					<polygon class="st12" points="1312.3,654.4 1333.6,666.6 1333.9,742 1312.3,729.7 					"/>
					
						<linearGradient id="SVGID_14_" gradientUnits="userSpaceOnUse" x1="1286.0552" y1="796.4326" x2="1292.9628" y2="789.5249" gradientTransform="matrix(0.9851 -0.1722 0.1722 0.9851 -83.6446 156.4386)">
						<stop  offset="0" style="stop-color:#C8C8C8"/>
						<stop  offset="1" style="stop-color:#F5F5F5"/>
					</linearGradient>
					<path class="st13" d="M1324.6,710.8L1324.6,710.8c3.3,1.5,4.2,6.3,1.6,8.8l0,0c-1.3,1.2-3,1.5-4.6,0.8v0
						c-3.3-1.5-4.2-6.3-1.6-8.8l0,0C1321.3,710.3,1323,710,1324.6,710.8z"/>
					<linearGradient id="SVGID_15_" gradientUnits="userSpaceOnUse" x1="1347.9126" y1="668.6395" x2="1347.9126" y2="756.2916">
						<stop  offset="0" style="stop-color:#4B4B4B"/>
						<stop  offset="1" style="stop-color:#0A0A0A"/>
					</linearGradient>
					<polygon class="st14" points="1337.1,668.6 1358.3,680.8 1358.7,756.3 1337.1,743.9 					"/>
					
						<linearGradient id="SVGID_16_" gradientUnits="userSpaceOnUse" x1="1308.014" y1="814.7353" x2="1314.9218" y2="807.8276" gradientTransform="matrix(0.9851 -0.1722 0.1722 0.9851 -83.6446 156.4386)">
						<stop  offset="0" style="stop-color:#C8C8C8"/>
						<stop  offset="1" style="stop-color:#F5F5F5"/>
					</linearGradient>
					<path class="st15" d="M1349.4,725L1349.4,725c3.3,1.5,4.2,6.3,1.6,8.8l0,0c-1.3,1.2-3,1.5-4.6,0.8l0,0
						c-3.3-1.5-4.2-6.3-1.6-8.8l0,0C1346,724.6,1347.8,724.3,1349.4,725z"/>
				</g>
				<linearGradient id="SVGID_17_" gradientUnits="userSpaceOnUse" x1="1222" y1="663.1818" x2="1250.1781" y2="663.1818">
					<stop  offset="0" style="stop-color:#FFFFFF"/>
					<stop  offset="1" style="stop-color:#505050"/>
				</linearGradient>
				<polygon class="st16" points="1250.2,681.9 1229.2,693.9 1229.2,640.3 1250.2,628.3 1250.2,620.2 1222,636.3 1222,706.2 
					1250.2,690 				"/>
				<linearGradient id="SVGID_18_" gradientUnits="userSpaceOnUse" x1="1517.2625" y1="832.5455" x2="1545.4406" y2="832.5455">
					<stop  offset="0" style="stop-color:#FFFFFF"/>
					<stop  offset="1" style="stop-color:#505050"/>
				</linearGradient>
				<polygon class="st17" points="1545.4,851.3 1524.5,863.3 1524.5,809.6 1545.4,797.6 1545.4,789.5 1517.3,805.7 1517.3,875.6 
					1545.4,859.4 				"/>
				<linearGradient id="SVGID_19_" gradientUnits="userSpaceOnUse" x1="1449.3341" y1="785.5" x2="1514.948" y2="785.5">
					<stop  offset="0" style="stop-color:#6BFF55"/>
					<stop  offset="1" style="stop-color:#ACFFC7"/>
				</linearGradient>
				<path class="st18" d="M1453.3,750.1l60.4,34.7c0.8,0.4,1.3,1.3,1.3,2.1v31.8c0,1.9-2.2,3.1-3.9,2.1l-60.4-34.7
					c-0.8-0.4-1.3-1.3-1.3-2.1v-31.8C1449.3,750.3,1451.5,749.1,1453.3,750.1z"/>
			</g>
			<g>
				<linearGradient id="SVGID_20_" gradientUnits="userSpaceOnUse" x1="1386.135" y1="731.3482" x2="1610.9541" y2="506.5291">
					<stop  offset="0" style="stop-color:#A0A0A0"/>
					<stop  offset="1" style="stop-color:#505050"/>
				</linearGradient>
				<polygon class="st19" points="1761,656.6 1564.2,769.5 1236.1,581.3 1432.9,468.4 				"/>
				<linearGradient id="SVGID_21_" gradientUnits="userSpaceOnUse" x1="1556.9143" y1="764.7559" x2="1768.2441" y2="553.426">
					<stop  offset="0" style="stop-color:#A0A0A0"/>
					<stop  offset="1" style="stop-color:#505050"/>
				</linearGradient>
				<polygon class="st20" points="1564.2,772 1564.2,659.1 1761,546.2 1761,659.1 				"/>
				<linearGradient id="SVGID_22_" gradientUnits="userSpaceOnUse" x1="1229.4739" y1="575.9451" x2="1439.5458" y2="365.8731">
					<stop  offset="0" style="stop-color:#A0A0A0"/>
					<stop  offset="1" style="stop-color:#505050"/>
				</linearGradient>
				<polygon class="st21" points="1236.1,582.6 1236.1,472.2 1432.9,359.3 1432.9,469.7 				"/>
				<linearGradient id="SVGID_23_" gradientUnits="userSpaceOnUse" x1="1386.135" y1="620.955" x2="1610.9541" y2="396.1359">
					<stop  offset="0" style="stop-color:#A0A0A0"/>
					<stop  offset="1" style="stop-color:#505050"/>
				</linearGradient>
				<polygon class="st22" points="1761,546.2 1564.2,659.1 1236.1,470.9 1432.9,358 				"/>
				<linearGradient id="SVGID_24_" gradientUnits="userSpaceOnUse" x1="1400.1238" y1="470.9091" x2="1400.1238" y2="772">
					<stop  offset="0" style="stop-color:#A0A0A0"/>
					<stop  offset="1" style="stop-color:#505050"/>
				</linearGradient>
				<polygon class="st23" points="1236.1,470.9 1236.1,583.8 1564.2,772 1564.2,659.1 				"/>
				<g>
					<linearGradient id="SVGID_25_" gradientUnits="userSpaceOnUse" x1="1273.5314" y1="508.3286" x2="1273.5314" y2="595.9807">
						<stop  offset="0" style="stop-color:#4B4B4B"/>
						<stop  offset="1" style="stop-color:#0A0A0A"/>
					</linearGradient>
					<polygon class="st24" points="1262.7,508.3 1284,520.5 1284.3,596 1262.7,583.6 					"/>
					
						<linearGradient id="SVGID_26_" gradientUnits="userSpaceOnUse" x1="1262.3428" y1="644.0125" x2="1269.2505" y2="637.1048" gradientTransform="matrix(0.9851 -0.1722 0.1722 0.9851 -83.6446 156.4386)">
						<stop  offset="0" style="stop-color:#C8C8C8"/>
						<stop  offset="1" style="stop-color:#F5F5F5"/>
					</linearGradient>
					<path class="st25" d="M1275,564.7L1275,564.7c3.3,1.5,4.2,6.3,1.6,8.8l0,0c-1.3,1.2-3,1.5-4.6,0.8v0c-3.3-1.5-4.2-6.3-1.6-8.8
						l0,0C1271.7,564.3,1273.4,564,1275,564.7z"/>
					<linearGradient id="SVGID_27_" gradientUnits="userSpaceOnUse" x1="1298.7021" y1="523.4122" x2="1298.7021" y2="611.0643">
						<stop  offset="0" style="stop-color:#4B4B4B"/>
						<stop  offset="1" style="stop-color:#0A0A0A"/>
					</linearGradient>
					<polygon class="st26" points="1287.9,523.4 1309.1,535.6 1309.5,611.1 1287.9,598.7 					"/>
					
						<linearGradient id="SVGID_28_" gradientUnits="userSpaceOnUse" x1="1284.5409" y1="663.2043" x2="1291.4486" y2="656.2966" gradientTransform="matrix(0.9851 -0.1722 0.1722 0.9851 -83.6446 156.4386)">
						<stop  offset="0" style="stop-color:#C8C8C8"/>
						<stop  offset="1" style="stop-color:#F5F5F5"/>
					</linearGradient>
					<path class="st27" d="M1300.2,579.8L1300.2,579.8c3.3,1.5,4.2,6.3,1.6,8.8l0,0c-1.3,1.2-3,1.5-4.6,0.8l0,0
						c-3.3-1.5-4.2-6.3-1.6-8.8l0,0C1296.8,579.4,1298.6,579.1,1300.2,579.8z"/>
					<linearGradient id="SVGID_29_" gradientUnits="userSpaceOnUse" x1="1323.1305" y1="537.3905" x2="1323.1305" y2="625.0426">
						<stop  offset="0" style="stop-color:#4B4B4B"/>
						<stop  offset="1" style="stop-color:#0A0A0A"/>
					</linearGradient>
					<polygon class="st28" points="1312.3,537.4 1333.6,549.6 1333.9,625 1312.3,612.7 					"/>
					
						<linearGradient id="SVGID_30_" gradientUnits="userSpaceOnUse" x1="1306.198" y1="681.1796" x2="1313.1057" y2="674.2719" gradientTransform="matrix(0.9851 -0.1722 0.1722 0.9851 -83.6446 156.4386)">
						<stop  offset="0" style="stop-color:#C8C8C8"/>
						<stop  offset="1" style="stop-color:#F5F5F5"/>
					</linearGradient>
					<path class="st29" d="M1324.6,593.8L1324.6,593.8c3.3,1.5,4.2,6.3,1.6,8.8l0,0c-1.3,1.2-3,1.5-4.6,0.8v0
						c-3.3-1.5-4.2-6.3-1.6-8.8l0,0C1321.3,593.3,1323,593,1324.6,593.8z"/>
					<linearGradient id="SVGID_31_" gradientUnits="userSpaceOnUse" x1="1347.9126" y1="551.6395" x2="1347.9126" y2="639.2916">
						<stop  offset="0" style="stop-color:#4B4B4B"/>
						<stop  offset="1" style="stop-color:#0A0A0A"/>
					</linearGradient>
					<polygon class="st30" points="1337.1,551.6 1358.3,563.8 1358.7,639.3 1337.1,626.9 					"/>
					
						<linearGradient id="SVGID_32_" gradientUnits="userSpaceOnUse" x1="1328.1569" y1="699.4822" x2="1335.0646" y2="692.5746" gradientTransform="matrix(0.9851 -0.1722 0.1722 0.9851 -83.6446 156.4386)">
						<stop  offset="0" style="stop-color:#C8C8C8"/>
						<stop  offset="1" style="stop-color:#F5F5F5"/>
					</linearGradient>
					<path class="st31" d="M1349.4,608L1349.4,608c3.3,1.5,4.2,6.3,1.6,8.8l0,0c-1.3,1.2-3,1.5-4.6,0.8l0,0
						c-3.3-1.5-4.2-6.3-1.6-8.8l0,0C1346,607.6,1347.8,607.3,1349.4,608z"/>
				</g>
				<linearGradient id="SVGID_33_" gradientUnits="userSpaceOnUse" x1="1222" y1="546.1818" x2="1250.1781" y2="546.1818">
					<stop  offset="0" style="stop-color:#FFFFFF"/>
					<stop  offset="1" style="stop-color:#505050"/>
				</linearGradient>
				<polygon class="st32" points="1250.2,564.9 1229.2,576.9 1229.2,523.3 1250.2,511.3 1250.2,503.2 1222,519.3 1222,589.2 
					1250.2,573 				"/>
				<linearGradient id="SVGID_34_" gradientUnits="userSpaceOnUse" x1="1517.2625" y1="715.5455" x2="1545.4406" y2="715.5455">
					<stop  offset="0" style="stop-color:#FFFFFF"/>
					<stop  offset="1" style="stop-color:#505050"/>
				</linearGradient>
				<polygon class="st33" points="1545.4,734.3 1524.5,746.3 1524.5,692.6 1545.4,680.6 1545.4,672.5 1517.3,688.7 1517.3,758.6 
					1545.4,742.4 				"/>
				<linearGradient id="SVGID_35_" gradientUnits="userSpaceOnUse" x1="1449.3341" y1="668.5" x2="1514.948" y2="668.5">
					<stop  offset="0" style="stop-color:#6BFF55"/>
					<stop  offset="1" style="stop-color:#ACFFC7"/>
				</linearGradient>
				<path class="st34" d="M1453.3,633.1l60.4,34.7c0.8,0.4,1.3,1.3,1.3,2.1v31.8c0,1.9-2.2,3.1-3.9,2.1l-60.4-34.7
					c-0.8-0.4-1.3-1.3-1.3-2.1v-31.8C1449.3,633.3,1451.5,632.1,1453.3,633.1z"/>
			</g>
		</g>
		<g>
			
				<linearGradient id="SVGID_36_" gradientUnits="userSpaceOnUse" x1="2498.6145" y1="579.6656" x2="2515.3074" y2="608.5784" gradientTransform="matrix(-1 0 0 1 2580.2053 0)">
				<stop  offset="0" style="stop-color:#94D4FF"/>
				<stop  offset="1" style="stop-color:#3587B5"/>
			</linearGradient>
			<polygon class="st35" points="462.8,838.3 462.8,814.8 -316.3,349.9 -316.3,373.5 			"/>
			<g>
				<g>
					<path class="st36" d="M535.4,883.3v22.2c0,1.9-2.1,3.1-3.7,2.2l-14.4-8.3c-0.8-0.4-1.2-1.3-1.2-2.2v-11.8L438.3,867v-13.3
						L516,872L535.4,883.3z"/>
					<path class="st36" d="M562.7,867.3v22.2c0,1.9-2.1,3.1-3.7,2.2l-14.4-8.3c-0.8-0.4-1.2-1.3-1.2-2.2v-11.8L465.6,851v-13.3
						l77.7,18.3L562.7,867.3z"/>
					<polygon class="st36" points="465.6,837.8 438.3,853.8 516,872 535.4,883.3 562.7,867.3 543.3,856.1 					"/>
					<path class="st36" d="M534.2,907.6l27.7-16.4l0.4-0.6l0.3-1.1v-22.2l-27.3,16l-0.4,21.9C535,905.2,535.2,906.6,534.2,907.6z"/>
				</g>
				<polygon class="st37" points="483,756.8 483,815.4 567,865.8 567,854.4 581,862.5 581,824.1 518,787.8 518,777.7 				"/>
				<polygon class="st38" points="517.4,895.2 567,865.2 567,854.4 517.4,883.8 				"/>
				<path class="st37" d="M517.4,895.2"/>
				
					<linearGradient id="SVGID_37_" gradientUnits="userSpaceOnUse" x1="2062.2329" y1="797.4565" x2="2111.8298" y2="797.4565" gradientTransform="matrix(-1 0 0 1 2580.2053 0)">
					<stop  offset="0" style="stop-color:#94D4FF"/>
					<stop  offset="1" style="stop-color:#3587B5"/>
				</linearGradient>
				<polygon class="st39" points="518,777.7 468.4,807.2 468.4,817.2 518,787.8 				"/>
				
					<linearGradient id="SVGID_38_" gradientUnits="userSpaceOnUse" x1="2062.2329" y1="782.004" x2="2146.8477" y2="782.004" gradientTransform="matrix(-1 0 0 1 2580.2053 0)">
					<stop  offset="0" style="stop-color:#94D4FF"/>
					<stop  offset="1" style="stop-color:#3587B5"/>
				</linearGradient>
				<polygon class="st40" points="433.4,786.3 483,756.8 518,777.7 468.4,807.2 				"/>
				<polygon class="st37" points="574.7,839.7 535.2,816.2 535.2,804.4 574.7,827.9 				"/>
				
					<linearGradient id="SVGID_39_" gradientUnits="userSpaceOnUse" x1="2005.5365" y1="822.038" x2="2044.9852" y2="822.038" gradientTransform="matrix(-1 0 0 1 2580.2053 0)">
					<stop  offset="0" style="stop-color:#94D4FF"/>
					<stop  offset="1" style="stop-color:#3587B5"/>
				</linearGradient>
				<polygon class="st41" points="574.7,839.7 535.2,816.2 535.2,804.4 574.7,827.9 				"/>
				
					<linearGradient id="SVGID_40_" gradientUnits="userSpaceOnUse" x1="2005.5365" y1="838.4781" x2="2080.1985" y2="838.4781" gradientTransform="matrix(-1 0 0 1 2580.2053 0)">
					<stop  offset="0" style="stop-color:#94D4FF"/>
					<stop  offset="1" style="stop-color:#3587B5"/>
				</linearGradient>
				<polygon class="st42" points="574.7,839.7 535.2,816.2 500,837 539.5,860.8 				"/>
				<polygon class="st43" points="573.3,840.4 569.5,842.6 543.6,826.8 547,824.7 				"/>
				<polygon class="st43" points="569.1,842.9 565.4,845.2 539.4,829.3 542.8,827.2 				"/>
				<polygon class="st43" points="564.9,845.4 561.1,847.7 535.2,831.8 538.6,829.8 				"/>
				<polygon class="st43" points="560.6,847.9 556.9,850.2 531,834.3 534.4,832.3 				"/>
				<polygon class="st43" points="556.4,850.4 552.7,852.7 526.7,836.8 530.1,834.7 				"/>
				<polygon class="st43" points="552.1,853 548.4,855.2 522.4,839.3 525.8,837.3 				"/>
				<polygon class="st43" points="547.9,855.7 544.1,857.9 518.2,842 521.6,840 				"/>
				<polygon class="st43" points="543.6,858.2 539.9,860.5 513.9,844.6 517.3,842.6 				"/>
				
					<linearGradient id="SVGID_41_" gradientUnits="userSpaceOnUse" x1="2044.9852" y1="820.7481" x2="2080.2734" y2="820.7481" gradientTransform="matrix(-1 0 0 1 2580.2053 0)">
					<stop  offset="0" style="stop-color:#94D4FF"/>
					<stop  offset="1" style="stop-color:#3587B5"/>
				</linearGradient>
				<polygon class="st44" points="535.2,816.2 535.2,804.4 499.9,825.6 499.9,837.1 				"/>
				<path class="st38" d="M539.5,848.7"/>
				
					<linearGradient id="SVGID_42_" gradientUnits="userSpaceOnUse" x1="1999.2008" y1="820.6587" x2="2111.8298" y2="820.6587" gradientTransform="matrix(-1 0 0 1 2580.2053 0)">
					<stop  offset="0" style="stop-color:#94D4FF"/>
					<stop  offset="1" style="stop-color:#3587B5"/>
				</linearGradient>
				<polygon class="st45" points="535.2,804.4 500,825.7 539.5,848.7 531.4,853.6 468.4,817.2 518,787.8 581,824.1 574.7,827.9 				
					"/>
				
					<linearGradient id="SVGID_43_" gradientUnits="userSpaceOnUse" x1="2048.7981" y1="840.7586" x2="2146.8477" y2="840.7586" gradientTransform="matrix(-1 0 0 1 2580.2053 0)">
					<stop  offset="0" style="stop-color:#94D4FF"/>
					<stop  offset="1" style="stop-color:#3587B5"/>
				</linearGradient>
				<polygon class="st46" points="433.4,786.3 433.4,844.9 517.4,895.2 517.4,883.8 531.4,891.9 531.4,853.6 468.4,817.2 
					468.4,807.2 				"/>
				
					<linearGradient id="SVGID_44_" gradientUnits="userSpaceOnUse" x1="1999.2008" y1="858.074" x2="2048.7981" y2="858.074" gradientTransform="matrix(-1 0 0 1 2580.2053 0)">
					<stop  offset="0" style="stop-color:#94D4FF"/>
					<stop  offset="1" style="stop-color:#3587B5"/>
				</linearGradient>
				<polygon class="st47" points="531.4,853.6 539.5,848.7 539.5,860.8 574.7,839.7 574.7,827.9 581,824.1 581,862.5 531.4,892 				
					"/>
				<polygon class="st43" points="569.5,842.6 569.6,855.1 573.3,852.9 573.3,840.4 				"/>
				<polygon class="st43" points="565.4,845.2 565.4,857.7 569.1,855.4 569.1,842.9 				"/>
				<polygon class="st43" points="561.1,847.7 561.2,860.2 564.9,858 564.9,845.4 				"/>
				<polygon class="st43" points="556.9,850.2 557,862.7 560.6,860.4 560.6,847.9 				"/>
				<polygon class="st43" points="552.7,852.7 552.7,865.2 556.4,862.9 556.4,850.4 				"/>
				<polygon class="st43" points="548.4,855.2 548.4,867.7 552.1,865.5 552.1,853 				"/>
				<polygon class="st43" points="544.1,857.9 544.2,870.4 547.9,868.2 547.9,855.7 				"/>
				<polygon class="st43" points="539.9,860.5 539.9,873 543.6,870.8 543.6,858.2 				"/>
			</g>
		</g>
	</g>
</g>
</svg>
